{"scene":0,"scenes":[{"nodes":[0]}],"asset":{"version":"2.0","generator":"https://github.com/mikedh/trimesh"},"accessors":[{"componentType":5125,"type":"SCALAR","bufferView":0,"count":9696,"max":[7622],"min":[737]},{"componentType":5126,"type":"VEC3","byteOffset":0,"bufferView":1,"count":7623,"max":[0.8888130187988281,1.2224889993667603,1.8634519577026367],"min":[-0.8888130187988281,-0.01626100018620491,-1.8670380115509033]},{"componentType":5126,"type":"VEC2","byteOffset":0,"bufferView":3,"count":7623,"max":[0.7062252163887024,0.6517857313156128],"min":[0.0395585335791111,0.6517857313156128]},{"componentType":5126,"count":7623,"type":"VEC3","byteOffset":0,"bufferView":4,"max":[1.0,1.0,1.0],"min":[-1.0,-1.0,-1.0]}],"meshes":[{"name":"Cop.obj","extras":{},"primitives":[{"attributes":{"POSITION":1,"TEXCOORD_0":2,"NORMAL":3},"indices":0,"mode":4,"material":0}]}],"images":[{"bufferView":2,"mimeType":"image/png"}],"textures":[{"source":0}],"materials":[{"pbrMetallicRoughness":{"baseColorTexture":{"index":0},"baseColorFactor":[0.4,0.4,0.4,1.0],"roughnessFactor":0.9036020036098448},"doubleSided":false}],"nodes":[{"name":"world","children":[1]},{"name":"Cop.obj","mesh":0}],"buffers":[{"uri":"gltf_buffer_0.bin","byteLength":38784},{"uri":"gltf_buffer_1.bin","byteLength":91476},{"uri":"gltf_buffer_2.bin","byteLength":144},{"uri":"gltf_buffer_3.bin","byteLength":60984},{"uri":"gltf_buffer_4.bin","byteLength":91476}],"bufferViews":[{"buffer":0,"byteOffset":0,"byteLength":38784},{"buffer":1,"byteOffset":0,"byteLength":91476},{"buffer":2,"byteOffset":0,"byteLength":144},{"buffer":3,"byteOffset":0,"byteLength":60984},{"buffer":4,"byteOffset":0,"byteLength":91476}]}